<mxfile host="app.diagrams.net" modified="2023-05-04T14:26:21.505Z" agent="Mozilla/5.0 (Windows NT 10.0; Win64; x64) AppleWebKit/537.36 (KHTML, like Gecko) Chrome/113.0.0.0 Safari/537.36" etag="AMB2LYDGLpQgdbpLylHW" version="21.2.8" type="github">
  <diagram name="Page-1" id="pGwte_ti34ZChjOtpvfG">
    <mxGraphModel dx="491" dy="550" grid="1" gridSize="10" guides="1" tooltips="1" connect="1" arrows="1" fold="1" page="1" pageScale="1" pageWidth="827" pageHeight="1169" math="0" shadow="0">
      <root>
        <mxCell id="0" />
        <mxCell id="1" parent="0" />
        <mxCell id="7yGNPofrwCNbMT1KwREb-5" style="edgeStyle=orthogonalEdgeStyle;rounded=0;orthogonalLoop=1;jettySize=auto;html=1;exitX=0;exitY=0.5;exitDx=0;exitDy=0;entryX=0.5;entryY=0;entryDx=0;entryDy=0;" parent="1" source="7yGNPofrwCNbMT1KwREb-1" target="7yGNPofrwCNbMT1KwREb-3" edge="1">
          <mxGeometry relative="1" as="geometry" />
        </mxCell>
        <mxCell id="7yGNPofrwCNbMT1KwREb-6" style="edgeStyle=orthogonalEdgeStyle;rounded=0;orthogonalLoop=1;jettySize=auto;html=1;exitX=1;exitY=0.5;exitDx=0;exitDy=0;entryX=0.5;entryY=0;entryDx=0;entryDy=0;" parent="1" source="7yGNPofrwCNbMT1KwREb-1" target="7yGNPofrwCNbMT1KwREb-4" edge="1">
          <mxGeometry relative="1" as="geometry" />
        </mxCell>
        <mxCell id="7yGNPofrwCNbMT1KwREb-1" value="App.js" style="whiteSpace=wrap;html=1;aspect=fixed;" parent="1" vertex="1">
          <mxGeometry x="280" y="40" width="80" height="80" as="geometry" />
        </mxCell>
        <mxCell id="70VWhO-yBJpP6cMn51E0-2" style="edgeStyle=orthogonalEdgeStyle;rounded=0;orthogonalLoop=1;jettySize=auto;html=1;entryX=0.5;entryY=0;entryDx=0;entryDy=0;" edge="1" parent="1" source="7yGNPofrwCNbMT1KwREb-3" target="70VWhO-yBJpP6cMn51E0-1">
          <mxGeometry relative="1" as="geometry" />
        </mxCell>
        <mxCell id="70VWhO-yBJpP6cMn51E0-3" value="CLICK" style="edgeLabel;html=1;align=center;verticalAlign=middle;resizable=0;points=[];" vertex="1" connectable="0" parent="70VWhO-yBJpP6cMn51E0-2">
          <mxGeometry x="-0.2389" y="-1" relative="1" as="geometry">
            <mxPoint as="offset" />
          </mxGeometry>
        </mxCell>
        <mxCell id="7yGNPofrwCNbMT1KwREb-3" value="Store" style="rounded=0;whiteSpace=wrap;html=1;fillColor=#B9E0A5;" parent="1" vertex="1">
          <mxGeometry x="160" y="160" width="120" height="40" as="geometry" />
        </mxCell>
        <mxCell id="7yGNPofrwCNbMT1KwREb-4" value="Cart" style="rounded=0;whiteSpace=wrap;html=1;" parent="1" vertex="1">
          <mxGeometry x="360" y="160" width="120" height="40" as="geometry" />
        </mxCell>
        <mxCell id="70VWhO-yBJpP6cMn51E0-5" style="edgeStyle=orthogonalEdgeStyle;rounded=0;orthogonalLoop=1;jettySize=auto;html=1;exitX=1;exitY=0.5;exitDx=0;exitDy=0;" edge="1" parent="1" source="70VWhO-yBJpP6cMn51E0-1">
          <mxGeometry relative="1" as="geometry">
            <mxPoint x="260.0344827586207" y="320.344827586207" as="targetPoint" />
          </mxGeometry>
        </mxCell>
        <mxCell id="70VWhO-yBJpP6cMn51E0-12" style="edgeStyle=orthogonalEdgeStyle;rounded=0;orthogonalLoop=1;jettySize=auto;html=1;exitX=0;exitY=1;exitDx=0;exitDy=0;" edge="1" parent="1" source="70VWhO-yBJpP6cMn51E0-1" target="70VWhO-yBJpP6cMn51E0-8">
          <mxGeometry relative="1" as="geometry" />
        </mxCell>
        <mxCell id="70VWhO-yBJpP6cMn51E0-13" style="edgeStyle=orthogonalEdgeStyle;rounded=0;orthogonalLoop=1;jettySize=auto;html=1;exitX=1;exitY=1;exitDx=0;exitDy=0;" edge="1" parent="1" source="70VWhO-yBJpP6cMn51E0-1" target="70VWhO-yBJpP6cMn51E0-6">
          <mxGeometry relative="1" as="geometry" />
        </mxCell>
        <mxCell id="70VWhO-yBJpP6cMn51E0-1" value="Already in cart?" style="rhombus;whiteSpace=wrap;html=1;" vertex="1" parent="1">
          <mxGeometry x="180" y="280" width="80" height="80" as="geometry" />
        </mxCell>
        <mxCell id="70VWhO-yBJpP6cMn51E0-14" style="edgeStyle=orthogonalEdgeStyle;rounded=0;orthogonalLoop=1;jettySize=auto;html=1;exitX=1;exitY=0.5;exitDx=0;exitDy=0;entryX=0.5;entryY=1;entryDx=0;entryDy=0;" edge="1" parent="1" source="70VWhO-yBJpP6cMn51E0-4" target="7yGNPofrwCNbMT1KwREb-4">
          <mxGeometry relative="1" as="geometry" />
        </mxCell>
        <mxCell id="70VWhO-yBJpP6cMn51E0-15" value="Render&lt;br&gt;Cart" style="edgeLabel;html=1;align=center;verticalAlign=middle;resizable=0;points=[];" vertex="1" connectable="0" parent="70VWhO-yBJpP6cMn51E0-14">
          <mxGeometry x="0.2358" y="1" relative="1" as="geometry">
            <mxPoint as="offset" />
          </mxGeometry>
        </mxCell>
        <mxCell id="70VWhO-yBJpP6cMn51E0-4" value="CART STATE" style="rounded=1;whiteSpace=wrap;html=1;" vertex="1" parent="1">
          <mxGeometry x="160" y="520" width="120" height="60" as="geometry" />
        </mxCell>
        <mxCell id="70VWhO-yBJpP6cMn51E0-11" style="edgeStyle=orthogonalEdgeStyle;rounded=0;orthogonalLoop=1;jettySize=auto;html=1;exitX=0.5;exitY=1;exitDx=0;exitDy=0;entryX=0.5;entryY=0;entryDx=0;entryDy=0;" edge="1" parent="1" source="70VWhO-yBJpP6cMn51E0-6" target="70VWhO-yBJpP6cMn51E0-4">
          <mxGeometry relative="1" as="geometry" />
        </mxCell>
        <mxCell id="70VWhO-yBJpP6cMn51E0-6" value="UPDATE cart quantity" style="whiteSpace=wrap;html=1;aspect=fixed;" vertex="1" parent="1">
          <mxGeometry x="240" y="400" width="80" height="80" as="geometry" />
        </mxCell>
        <mxCell id="70VWhO-yBJpP6cMn51E0-10" style="edgeStyle=orthogonalEdgeStyle;rounded=0;orthogonalLoop=1;jettySize=auto;html=1;exitX=0.5;exitY=1;exitDx=0;exitDy=0;" edge="1" parent="1" source="70VWhO-yBJpP6cMn51E0-8" target="70VWhO-yBJpP6cMn51E0-4">
          <mxGeometry relative="1" as="geometry" />
        </mxCell>
        <mxCell id="70VWhO-yBJpP6cMn51E0-8" value="CREATE cart item" style="whiteSpace=wrap;html=1;aspect=fixed;" vertex="1" parent="1">
          <mxGeometry x="120" y="400" width="80" height="80" as="geometry" />
        </mxCell>
      </root>
    </mxGraphModel>
  </diagram>
</mxfile>
